<svg width="1024" height="1024" viewBox="0 0 1024 1024" fill="none" xmlns="http://www.w3.org/2000/svg">
  <path fill-rule="evenodd" clip-rule="evenodd" d="m561 38.7c172.2-.1 259.9.2 265 .8 4.2.5 10.1 1.4 13.1 1.9 3 .5 9.3 2 13.9 3.2 4.7 1.2 13.6 4.4 19.8 7.1 6.2 2.7 13.3 6.1 15.8 7.7 2.5 1.5 7.7 5.1 11.6 7.9 3.9 2.8 11 8.9 15.8 13.6 4.8 4.7 10.6 11.1 12.9 14.2 2.3 3.1 6.1 8.6 8.2 12.1 2.2 3.6 5.6 10.2 7.5 14.6 2 4.5 4.2 10.1 5 12.6.8 2.5 2.2 7.5 3.2 11.3.9 3.7 2 8.2 2.3 9.9.3 1.7 1 6.6 1.5 10.8.6 5.2 1.1 84.1 1.4 246.6.3 172.1.1 241.7-.6 248.9-.6 5.4-2.4 15.8-4.2 23-1.7 7.2-4.9 17.5-7 23-2.1 5.4-5.8 13.8-8.1 18.5-2.3 4.7-6.1 11.6-8.4 15.3-2.2 3.7-7.3 11.4-11.1 17.1-3.9 5.7-8.7 12.6-10.6 15.3-2 2.7-5.7 7.7-8.3 10.9-2.6 3.3-7.8 9.6-11.5 13.9-3.7 4.4-10.6 12.2-15.3 17.4-4.7 5.2-15.3 16.5-23.5 25.2-8.3 8.7-21.4 21.7-29.3 28.9-7.8 7.2-17.7 16.1-21.9 19.8-4.2 3.7-9.9 8.5-12.6 10.8-2.7 2.3-8.2 6.8-12.1 10-4 3.2-9 7.1-11.3 8.7-2.2 1.6-9.3 6.4-15.8 10.8-6.4 4.4-14.7 9.8-18.5 12-3.7 2.2-11 6.2-16.2 8.8-5.2 2.6-15.1 7.2-22 10.1-6.9 3-17.3 6.9-23 8.8-5.7 1.9-14.2 4.5-18.9 5.7-4.7 1.2-12.6 3-17.5 4-4.9 1-12.2 2.2-16.2 2.8-4 .5-10.6 1.4-14.9 1.9-5 .6-74.9.9-202.5.9-161.6 0-196.5-.2-204.3-1.3-5.2-.7-12.5-1.9-16.2-2.8-3.7-.8-10.8-3-15.8-4.7-4.9-1.8-12.6-5-17.1-7.2-4.5-2.2-11.1-6.1-14.9-8.6-3.7-2.5-9.8-7.2-13.5-10.4-3.7-3.2-9.6-8.9-13-12.7-3.4-3.7-9-11.1-12.5-16.3-3.4-5.2-8-13.1-10.1-17.5-2.1-4.5-4.9-11.5-6.2-15.8-1.3-4.2-2.9-10.9-3.7-14.9-.8-4-1.8-11.7-2.3-17.1-.5-5.7-.8-124-.8-280.8 0-154.7.4-276.5.9-284 .4-7.2 1.2-16.1 1.6-19.8.4-3.7 1.2-7.7 1.8-8.8.6-1.1 2.5-2.4 4.4-3 2.1-.6 10.6-.9 22-.7 16.5.3 18.8.5 20.3 1.9 1.5 1.5 1.6 14.8 1.7 296.1.1 273.8.2 295 1.6 301.7.8 4 2.3 9.6 3.3 12.6 1 3 3.6 8.8 5.8 13.1 2.2 4.2 6.1 10.3 8.7 13.5 2.6 3.2 7.4 8.3 10.6 11.3 3.3 3 9.8 7.5 14.4 10.1 4.7 2.6 11.1 5.5 14.3 6.4 3.2.9 8.5 2.2 11.7 2.7 3.2.5 10.1 1.4 15.3 1.9 6.1.6 80.6.9 208.4.9 127.7 0 204.9-.3 215.6-.9 9.2-.5 18.2-1.3 20-1.8 2.9-.7 3.7-1.6 5.9-6 1.4-2.8 3.8-9 5.3-13.7 1.5-4.7 3.2-10.8 3.7-13.5.5-2.7 1.4-7.8 1.9-11.3.5-3.5 1.3-10.1 1.8-14.9.5-4.7 1.2-17.1 1.5-27.5.3-10.4.7-25.2.9-32.8.2-7.7.9-17.4 1.4-21.6.6-4.2 1.8-10.6 2.7-14.2.9-3.6 3.2-9.9 5.1-13.9 1.9-4.1 5.5-10.5 8-14.2 2.5-3.7 6.5-8.9 8.9-11.6 2.4-2.7 7.2-7.1 10.7-9.9 3.5-2.8 8.5-6.2 11.3-7.6 2.7-1.4 7.4-3.5 10.4-4.8 3-1.2 8.4-3 12.1-4 3.7-1 11-2.4 16.2-3.1 5.6-.8 17.1-1.3 28.4-1.3 10.4 0 25.8-.4 34.2-.9 8.4-.5 20-1.3 25.6-1.8 5.7-.5 13.4-1.3 17.1-1.9 3.7-.5 10.2-1.6 14.4-2.3 4.2-.8 11.5-2.5 16.2-3.9 4.7-1.4 9.7-2.9 13.5-4.5l0-258.1c0-218.4-.2-259.2-1.3-265.3-.7-4-2.3-10-3.5-13.5-1.3-3.5-3.8-9.1-5.7-12.6-1.9-3.5-6.1-9.5-9.3-13.4-3.2-3.9-8.9-9.6-12.6-12.6-3.7-3-10-7.2-13.9-9.4-4-2.2-10.8-5.2-15.3-6.7-4.4-1.5-11.9-3.2-16.6-3.9-7-1-54.3-1.2-266.4-1.2-220.8 0-259.8.2-271.4 1.3-7.4.7-16.5 1.7-20.3 2.2-3.7.5-8.8 1.3-11.3 1.8-2.5.5-5.7 1.2-7.2 1.5-1.5.3-6.3 1.5-10.8 2.7-4.4 1.1-11.7 3.4-16.2 4.9-4.4 1.6-12.1 4.6-17.1 6.7-4.9 2.1-13.3 6.2-18.5 9-5.2 2.8-14.7 8.6-21.1 12.9-6.4 4.3-12.9 8.7-14.4 9.8-1.5 1.1-4.8 3.6-7.3 5.6-2.5 2-6.7 5.3-9.4 7.4-2.7 2.1-10.6 9.5-17.5 16.5-6.9 7-14.8 15.4-17.5 18.7-2.7 3.3-5.1 5.8-5.2 5.6-.1-.3.4-1.7 1.1-3.2.7-1.5 1.3-3 1.1-3.4-.1-.4 1.2-4.1 2.8-8.3 1.7-4.2 5.1-11.7 7.5-16.6 2.4-4.9 5.9-11.4 7.7-14.4 1.8-3 6.7-10.1 10.9-15.7 4.3-5.7 12.2-15.2 17.7-21.1 5.5-5.9 13.8-14.1 18.5-18.2 4.6-4.1 11.5-9.7 15.2-12.5 3.7-2.8 10.2-7.4 14.4-10.1 4.2-2.7 13.3-7.7 20.3-11.1 6.9-3.4 17.9-7.9 24.3-10.1 6.4-2.2 15.6-5 20.3-6.2 4.7-1.2 11.2-2.7 14.4-3.3 3.2-.6 7.9-1.4 10.4-1.9 2.5-.5 8.1-1.2 12.6-1.6 4.5-.4 123.9-.9 265.5-.9zM289.7 148.4l2.3 2.3c2.2 2.2 2.3 2.5 2.3 17.3 0 13.1-.2 15.4-3.2 19.3l-81.4-.2v86.4l-2.2 2.3c-2.2 2.2-2.3 2.3-18.2 2.3-12.5 0-16.4-.3-17.8-1.3-1.8-1.3-1.8-2.5-2-61.7-.2-45.2 0-60.9.8-62.6.6-1.3 1.9-2.7 2.9-3.1 1-.5 26.9-.8 116.6-.9zM781.1 148.5c49.5-.1 57.4.1 59.2 1.3 1.1.8 2.4 2.9 2.9 4.7.5 2 .9 27.3.9 119l-2.2 2.3c-2.2 2.2-2.3 2.3-18 2.3-15.6 0-15.8 0-20.3-4.5v-86.4h-41c-39.8 0-41-.1-42.8-1.8-1.4-1.4-1.8-3.1-1.9-7.4 0-3.1 0-8.7 0-12.4.1-3.7.3-8 .6-9.4.3-1.5.7-3.4.9-4.3.2-.9 1.3-2 2.4-2.4 1.2-.5 25.9-.9 59.2-.9zM512.9 307.4c1.2.3 3.6 1.1 5.2 1.8 1.6.7 9.9 8 18.5 16.3 8.5 8.3 32.1 31.5 52.4 51.5 20.3 20 48 47.3 61.5 60.7 14.1 13.9 25.2 25.5 25.9 27.2.7 1.6 1.3 4.4 1.3 6.3 0 2.2-.9 4.9-2.8 7.9-1.5 2.5-7.5 9-13.2 14.4-5.7 5.4-12.5 11.2-15 12.9-2.5 1.6-5.4 3.2-6.4 3.4-1 .3-4-.2-6.8-.9-2.7-.8-10-4.5-16.2-8.2-6.2-3.7-14.7-9-18.9-11.7-4.2-2.7-8.9-5.6-10.4-6.4-1.5-.8-6.3-3.9-10.8-6.9-4.4-3-9.2-5.9-10.6-6.6-1.4-.7-2.7-1.3-2.9-1.3-.3 0-.4 46.8-.4 103.9 0 90.4-.2 104.4-1.4 107.1-.7 1.7-2.5 3.9-3.8 4.7-2.2 1.4-6.1 1.6-47.6 1.6-43.8 0-45.3-.1-47.6-1.8-1.4-1-3-3.2-3.6-4.9-.9-2.5-1.2-25.1-1.3-211.5l-6.6 4.3c-3.6 2.3-10.8 6.9-15.8 10.1-5.1 3.2-12.9 8.2-17.5 11.2-4.6 2.9-11.3 7.2-15 9.4-3.7 2.3-9 5-11.7 6.1-2.7 1.1-5.8 2.1-6.8 2.1-1 0-4-1.1-6.8-2.5-3.4-1.7-8.4-5.9-16.1-13.7-6.1-6.2-12.1-12.9-13.2-14.9-1.1-2-2.3-4.9-2.6-6.5-.4-2 .1-4.3 1.3-7.2 1.4-3.2 5.9-8.3 18.3-20.5 9-8.9 43.2-42.7 76-75.2 51.5-50.9 60.2-59.2 64.3-60.9 2.8-1.2 5.6-1.8 7-1.5z" fill="#fff"/>
</svg>
